#!OML:ASF X:\für Bonn\!DataBase\2005_08_10_Bjorn_Final\c3d\bjorn.ASF
:FULLY-SPECIFIED
:DEGREES
76
root -15.9341 19.1406 -0.348295 1922.2 -88.2225 -482.75
lowerback -6.12201 5.87842 -3.28077
upperback 6.64507 8.60181 -6.23628
thorax 11.118 4.08041 -3.57917
lowerneck -6.9265 -8.28231 1.77977
upperneck 3.87361 -11.5408 4.59116
head 2.60829 -5.59282 0.651144
rclavicle 3.4191e-014 -3.02153e-014
rhumerus 25.923 -18.3799 -78.9322
rradius 73.9744
rwrist -32.3889
rhand -20.7457 11.3141
rfingers 7.12502
rthumb 5.61986 -18.5914
lclavicle 3.4191e-014 -3.02153e-014
lhumerus -25.7195 2.77974 80.0022
lradius 23.0289
lwrist -23.3518
lhand -20.3776 -7.37806
lfingers 7.12502
lthumb 5.97527 22.5177
rfemur 10.1196 -1.01153 14.5908
rtibia 37.5085
rfoot 7.15329 8.59619
rtoes -10.1668
lfemur -23.7509 6.44016 -17.0508
ltibia 30.7957
lfoot 1.11805 -11.5245
ltoes -3.80606
77
root -16.0264 19.1682 -0.330813 1922.08 -88.235 -482.497
lowerback -6.04885 5.92168 -3.35482
upperback 6.57945 8.66632 -6.43251
thorax 11.0288 4.11448 -3.75032
lowerneck -6.77634 -8.40521 1.71642
upperneck 3.79891 -11.7067 4.8042
head 2.57782 -5.67559 0.728566
rclavicle -8.5875e-014 2.8625e-014
rhumerus 27.3766 -18.8989 -78.7059
rradius 72.9062
rwrist -32.3023
rhand -20.8324 11.2497
rfingers 7.12502
rthumb 5.53614 -18.658
lclavicle -8.5875e-014 2.8625e-014
lhumerus -25.5716 2.37031 79.9237
lradius 23.4331
lwrist -22.3353
lhand -20.964 -7.44296
lfingers 7.12502
lthumb 5.40909 22.468
rfemur 9.41412 -1.15217 14.5425
rtibia 38.3983
rfoot 7.60383 8.01364
rtoes -10.8973
lfemur -23.3985 6.38738 -17.1086
ltibia 30.4642
lfoot 0.954075 -11.4829
ltoes -3.68175
78
root -16.1165 19.1946 -0.314453 1921.59 -88.2092 -481.852
lowerback -5.998 5.98271 -3.3977
upperback 6.509 8.75224 -6.61183
thorax 10.9512 4.16072 -3.9147
lowerneck -6.65477 -8.54421 1.67057
upperneck 3.75614 -11.897 4.9964
head 2.56173 -5.76964 0.79351
rclavicle -9.38264e-014 4.77083e-014
rhumerus 28.7894 -19.405 -78.4071
rradius 71.7334
rwrist -32.128
rhand -20.93 11.2111
rfingers 7.12502
rthumb 5.44196 -18.6991
lclavicle -9.38264e-014 4.77083e-014
lhumerus -25.4431 1.87242 79.8679
lradius 23.835
lwrist -21.2161
lhand -21.4305 -7.67493
lfingers 7.12502
lthumb 4.95871 22.247
rfemur 8.70726 -1.2867 14.562
rtibia 39.1801
rfoot 7.6852 7.57642
rtoes -12.6561
lfemur -23.096 6.37546 -17.1319
ltibia 30.1599
lfoot 0.781087 -11.4892
ltoes -3.75131
79
root -16.2037 19.2169 -0.299755 1919.79 -88.1561 -479.923
lowerback -5.89907 6.04209 -3.39577
upperback 6.46033 8.82722 -6.77326
thorax 10.8729 4.20481 -4.09008
lowerneck -6.58873 -8.67479 1.58689
upperneck 3.71235 -12.0777 5.22871
head 2.56156 -5.85756 0.874675
rclavicle -4.05521e-014 2.54444e-014
rhumerus 30.1946 -19.8897 -78.075
rradius 70.4944
rwrist -31.8723
rhand -21.0326 11.111
rfingers 7.12502
rthumb 5.34285 -18.8016
lclavicle -4.05521e-014 2.54444e-014
lhumerus -25.2512 1.48815 79.8028
lradius 24.1596
lwrist -20.2122
lhand -21.8616 -7.91192
lfingers 7.12502
lthumb 4.54237 22.0194
rfemur 8.07311 -1.44766 14.6403
rtibia 39.8572
rfoot 7.60902 7.19559
rtoes -13.9731
lfemur -22.7778 6.33993 -17.0896
ltibia 29.8832
lfoot 0.595446 -11.4816
ltoes -3.61138
80
root -16.2877 19.2376 -0.284475 1918.12 -88.102 -478.149
lowerback -5.77274 6.10708 -3.35795
upperback 6.41559 8.90508 -6.96114
thorax 10.7944 4.25434 -4.31624
lowerneck -6.51719 -8.80583 1.61055
upperneck 3.67015 -12.2648 5.40686
head 2.55005 -5.94923 0.922042
rclavicle 6.36111e-015 -9.54166e-015
rhumerus 31.5963 -20.3478 -77.7549
rradius 69.157
rwrist -31.5066
rhand -21.1179 11.0677
rfingers 7.12502
rthumb 5.26055 -18.847
lclavicle 6.36111e-015 -9.54166e-015
lhumerus -25.0732 1.07963 79.6792
lradius 24.4869
lwrist -19.2455
lhand -22.2894 -8.18484
lfingers 7.12502
lthumb 4.12931 21.7549
rfemur 7.47259 -1.62731 14.7162
rtibia 40.443
rfoot 7.34022 6.93056
rtoes -15.0635
lfemur -22.4701 6.30599 -17.0498
ltibia 29.6347
lfoot 0.411587 -11.4751
ltoes -3.75793
81
root -16.3691 19.2575 -0.270121 1916.51 -88.0464 -476.441
lowerback -5.63405 6.16824 -3.33253
upperback 6.36285 8.97615 -7.13645
thorax 10.6953 4.29934 -4.52469
lowerneck -6.41872 -8.93167 1.60889
upperneck 3.63581 -12.4419 5.58325
head 2.53816 -6.03655 0.974495
rclavicle 5.725e-014 5.40694e-014
rhumerus 32.9395 -20.7463 -77.3713
rradius 67.7594
rwrist -31.1012
rhand -21.2459 11.0704
rfingers 7.12502
rthumb 5.13691 -18.8473
lclavicle 5.725e-014 5.40694e-014
lhumerus -24.9016 0.826658 79.5483
lradius 24.7693
lwrist -18.484
lhand -22.6822 -8.44064
lfingers 7.12502
lthumb 3.74999 21.5061
rfemur 6.89361 -1.82131 14.7932
rtibia 40.9611
rfoot 6.91484 6.76584
rtoes -15.6427
lfemur -22.1772 6.28171 -17.007
ltibia 29.4087
lfoot 0.218869 -11.4656
ltoes -3.64043
82
root -16.4485 19.2761 -0.25447 1916.11 -87.9701 -475.95
lowerback -5.47591 6.25127 -3.27053
upperback 6.31168 9.07198 -7.32548
thorax 10.5979 4.35981 -4.7665
lowerneck -6.32046 -9.04616 1.64307
upperneck 3.5752 -12.6068 5.77725
head 2.51645 -6.11817 1.02806
rclavicle -5.08889e-014 0
rhumerus 34.291 -21.1248 -76.9538
rradius 66.2597
rwrist -30.6567
rhand -21.3553 11.1069
rfingers 7.12502
rthumb 5.0313 -18.8134
lclavicle -5.08889e-014 0
lhumerus -24.721 0.560074 79.4032
lradius 25.0411
lwrist -17.7751
lhand -23.0646 -8.58031
lfingers 7.12502
lthumb 3.38072 21.3726
rfemur 6.32558 -1.99981 14.8604
rtibia 41.4335
rfoot 6.4108 6.75276
rtoes -15.6442
lfemur -21.8668 6.27185 -16.9628
ltibia 29.1863
lfoot 0.0114979 -11.4244
ltoes -3.77882
83
root -16.5255 19.2937 -0.23859 1915.73 -87.9161 -475.489
lowerback -5.32588 6.32273 -3.23938
upperback 6.26798 9.15495 -7.49898
thorax 10.5057 4.41061 -4.97616
lowerneck -6.23951 -9.15174 1.66053
upperneck 3.54432 -12.758 5.93718
head 2.50642 -6.19265 1.07277
rclavicle 2.06736e-014 1.90833e-014
rhumerus 35.5923 -21.4431 -76.4712
rradius 64.7239
rwrist -30.2317
rhand -21.437 11.2612
rfingers 7.12502
rthumb 4.95244 -18.6609
lclavicle 2.06736e-014 1.90833e-014
lhumerus -24.5608 0.279393 79.2884
lradius 25.3227
lwrist -17.1521
lhand -23.4447 -8.64894
lfingers 7.12502
lthumb 3.01366 21.3095
rfemur 5.76127 -2.2004 14.9105
rtibia 41.8604
rfoot 5.84039 6.79335
rtoes -15.3077
lfemur -21.5702 6.25698 -16.9426
ltibia 28.9675
lfoot -0.191377 -11.408
ltoes -3.93254
84
root -16.6002 19.3112 -0.222883 1916.16 -87.8485 -475.819
lowerback -5.20295 6.39023 -3.22426
upperback 6.22762 9.23547 -7.65435
thorax 10.4278 4.45778 -5.15533
lowerneck -6.1544 -9.23845 1.63734
upperneck 3.50783 -12.8803 6.10696
head 2.49719 -6.25332 1.12862
rclavicle -3.65764e-014 -2.8625e-014
rhumerus 36.8946 -21.6787 -75.9069
rradius 63.113
rwrist -29.8753
rhand -21.4432 11.4817
rfingers 7.12502
rthumb 4.94638 -18.4406
lclavicle -3.65764e-014 -2.8625e-014
lhumerus -24.407 0.107712 79.1913
lradius 25.5741
lwrist -16.667
lhand -23.8531 -8.63833
lfingers 7.12502
lthumb 2.61923 21.3253
rfemur 5.1752 -2.40985 14.9517
rtibia 42.2558
rfoot 5.22189 6.93071
rtoes -14.6842
lfemur -21.2823 6.26188 -16.923
ltibia 28.7309
lfoot -0.348496 -11.3566
ltoes -3.85272
85
root -16.6743 19.3291 -0.206928 1916.55 -87.7548 -476.145
lowerback -5.0439 6.47904 -3.15181
upperback 6.17876 9.3366 -7.82611
thorax 10.3344 4.52071 -5.38475
lowerneck -6.05462 -9.32589 1.69947
upperneck 3.48816 -13.0096 6.24856
head 2.48277 -6.31716 1.16246
rclavicle -6.20208e-014 2.22639e-014
rhumerus 38.1115 -21.9243 -75.3265
rradius 61.5191
rwrist -29.6084
rhand -21.4407 11.742
rfingers 7.12502
rthumb 4.94882 -18.1802
lclavicle -6.20208e-014 2.22639e-014
lhumerus -24.2629 -0.108925 79.0568
lradius 25.7778
lwrist -16.2793
lhand -24.2643 -8.69278
lfingers 7.12502
lthumb 2.22209 21.2754
rfemur 4.60766 -2.60145 15.022
rtibia 42.6055
rfoot 4.38717 7.11887
rtoes -14.5312
lfemur -20.9482 6.22101 -16.8631
ltibia 28.4752
lfoot -0.51692 -11.2495
ltoes -3.75747
